<svg width="123" height="31" viewBox="0 0 123 31" fill="none" xmlns="http://www.w3.org/2000/svg">
<path d="M1.168 24V7.2H3.44V24H1.168ZM2.32 3.488C1.85067 3.488 1.456 3.328 1.136 3.008C0.816 2.688 0.656 2.304 0.656 1.856C0.656 1.408 0.816 1.03466 1.136 0.735998C1.456 0.415998 1.85067 0.255999 2.32 0.255999C2.78933 0.255999 3.184 0.405332 3.504 0.703999C3.824 1.00267 3.984 1.376 3.984 1.824C3.984 2.29333 3.824 2.688 3.504 3.008C3.20533 3.328 2.81067 3.488 2.32 3.488ZM15.7458 24V5.12H8.32175V1.6H27.3298V5.12H19.9058V24H15.7458ZM37.9498 24.224C36.0511 24.224 34.3871 23.8507 32.9578 23.104C31.5498 22.336 30.4511 21.2907 29.6618 19.968C28.8938 18.6453 28.5098 17.1413 28.5098 15.456C28.5098 13.7493 28.8831 12.2453 29.6298 10.944C30.3978 9.62133 31.4431 8.58667 32.7658 7.84C34.1098 7.09333 35.6351 6.72 37.3418 6.72C39.0058 6.72 40.4884 7.08267 41.7898 7.808C43.0911 8.53333 44.1151 9.55733 44.8618 10.88C45.6084 12.2027 45.9818 13.76 45.9818 15.552C45.9818 15.7227 45.9711 15.9147 45.9498 16.128C45.9498 16.3413 45.9391 16.544 45.9178 16.736H31.6778V14.08H43.8058L42.2378 14.912C42.2591 13.9307 42.0564 13.0667 41.6298 12.32C41.2031 11.5733 40.6164 10.9867 39.8698 10.56C39.1444 10.1333 38.3018 9.92 37.3418 9.92C36.3604 9.92 35.4964 10.1333 34.7498 10.56C34.0244 10.9867 33.4484 11.584 33.0218 12.352C32.6164 13.0987 32.4138 13.984 32.4138 15.008V15.648C32.4138 16.672 32.6484 17.5787 33.1178 18.368C33.5871 19.1573 34.2484 19.7653 35.1018 20.192C35.9551 20.6187 36.9364 20.832 38.0458 20.832C39.0058 20.832 39.8698 20.6827 40.6378 20.384C41.4058 20.0853 42.0884 19.616 42.6858 18.976L44.8298 21.44C44.0618 22.336 43.0911 23.0293 41.9178 23.52C40.7658 23.9893 39.4431 24.224 37.9498 24.224ZM56.704 24.224C55.2747 24.224 53.8987 24.0427 52.576 23.68C51.2747 23.296 50.24 22.8373 49.472 22.304L51.008 19.264C51.776 19.7547 52.6933 20.16 53.76 20.48C54.8267 20.8 55.8933 20.96 56.96 20.96C58.2187 20.96 59.1253 20.7893 59.68 20.448C60.256 20.1067 60.544 19.648 60.544 19.072C60.544 18.6027 60.352 18.2507 59.968 18.016C59.584 17.76 59.0827 17.568 58.464 17.44C57.8453 17.312 57.152 17.1947 56.384 17.088C55.6373 16.9813 54.88 16.8427 54.112 16.672C53.3653 16.48 52.6827 16.2133 52.064 15.872C51.4453 15.5093 50.944 15.0293 50.56 14.432C50.176 13.8347 49.984 13.0453 49.984 12.064C49.984 10.976 50.2933 10.0373 50.912 9.248C51.5307 8.43733 52.3947 7.81867 53.504 7.392C54.6347 6.944 55.968 6.72 57.504 6.72C58.656 6.72 59.8187 6.848 60.992 7.104C62.1653 7.36 63.136 7.72267 63.904 8.192L62.368 11.232C61.5573 10.7413 60.736 10.4107 59.904 10.24C59.0933 10.048 58.2827 9.952 57.472 9.952C56.256 9.952 55.3493 10.1333 54.752 10.496C54.176 10.8587 53.888 11.3173 53.888 11.872C53.888 12.384 54.08 12.768 54.464 13.024C54.848 13.28 55.3493 13.4827 55.968 13.632C56.5867 13.7813 57.2693 13.9093 58.016 14.016C58.784 14.1013 59.5413 14.24 60.288 14.432C61.0347 14.624 61.7173 14.8907 62.336 15.232C62.976 15.552 63.488 16.0107 63.872 16.608C64.256 17.2053 64.448 17.984 64.448 18.944C64.448 20.0107 64.128 20.9387 63.488 21.728C62.8693 22.5173 61.984 23.136 60.832 23.584C59.68 24.0107 58.304 24.224 56.704 24.224ZM75.9248 24.224C74.0474 24.224 72.5968 23.744 71.5728 22.784C70.5488 21.8027 70.0368 20.3627 70.0368 18.464V3.136H74.0368V18.368C74.0368 19.1787 74.2394 19.808 74.6448 20.256C75.0714 20.704 75.6581 20.928 76.4048 20.928C77.3008 20.928 78.0474 20.6933 78.6448 20.224L79.7648 23.072C79.2954 23.456 78.7194 23.744 78.0368 23.936C77.3541 24.128 76.6501 24.224 75.9248 24.224ZM67.2208 10.24V7.04H78.6128V10.24H67.2208ZM85.1993 24V7.2H87.4713V24H85.1993ZM86.3513 3.488C85.8819 3.488 85.4873 3.328 85.1673 3.008C84.8473 2.688 84.6873 2.304 84.6873 1.856C84.6873 1.408 84.8473 1.03466 85.1673 0.735998C85.4873 0.415998 85.8819 0.255999 86.3513 0.255999C86.8206 0.255999 87.2153 0.405332 87.5353 0.703999C87.8553 1.00267 88.0153 1.376 88.0153 1.824C88.0153 2.29333 87.8553 2.688 87.5353 3.008C87.2366 3.328 86.8419 3.488 86.3513 3.488ZM95.777 24V5.088C95.777 3.59467 96.2143 2.38933 97.089 1.472C97.9637 0.554665 99.2223 0.0959988 100.865 0.0959988C101.505 0.0959988 102.124 0.181332 102.721 0.351999C103.318 0.522666 103.82 0.789333 104.225 1.152L103.457 2.848C103.137 2.57067 102.764 2.368 102.337 2.24C101.91 2.09067 101.452 2.016 100.961 2.016C100.001 2.016 99.265 2.28267 98.753 2.816C98.241 3.34933 97.985 4.13867 97.985 5.184V7.744L98.049 8.8V24H95.777ZM92.769 9.088V7.2H103.169V9.088H92.769ZM108.277 30.368C107.488 30.368 106.731 30.24 106.005 29.984C105.301 29.728 104.693 29.344 104.181 28.832L105.237 27.136C105.664 27.5413 106.123 27.8507 106.613 28.064C107.125 28.2987 107.691 28.416 108.309 28.416C109.056 28.416 109.696 28.2027 110.229 27.776C110.784 27.3707 111.307 26.6453 111.797 25.6L112.885 23.136L113.141 22.784L120.053 7.2H122.293L113.877 26.016C113.408 27.104 112.885 27.968 112.309 28.608C111.755 29.248 111.147 29.696 110.485 29.952C109.824 30.2293 109.088 30.368 108.277 30.368ZM112.757 24.48L105.013 7.2H107.381L114.229 22.624L112.757 24.48Z" fill="#024033"/>
</svg>
