<svg width="156" height="35" viewBox="0 0 156 35" fill="none" xmlns="http://www.w3.org/2000/svg">
<path d="M-4.72367e-06 18.48C-4.72367e-06 18.76 -4.72367e-06 19.32 -4.72367e-06 19.88C-4.72367e-06 20.44 -0.287828 26.32 0.287818 27.44C0.863464 28.84 4.89298 28.28 6.3321 28.28C7.19557 28.28 7.48339 28 7.77121 27.16C8.05904 26.6 8.05904 24.36 8.05904 21.56C5.46863 20.72 2.87822 19.6 -4.72367e-06 18.48ZM7.77121 10.36C7.77121 9.79999 7.77121 9.23999 7.48339 8.67999C7.19557 8.11999 6.90774 7.83999 5.46863 7.83999C5.46863 7.83999 2.5904 7.83999 1.43911 7.83999C0.287818 7.83999 -4.72367e-06 9.23999 -4.72367e-06 9.79999C-4.72367e-06 12.88 -4.72367e-06 14 -4.72367e-06 18.2C2.01476 19.04 4.60516 19.88 7.77121 21C7.77121 17.08 7.77121 12.32 7.77121 10.36ZM7.48339 1.67999C7.48339 1.11999 6.61992 0.559991 6.04428 0.559991C5.18081 0.559991 2.87822 0.279991 1.43911 0.559991C1.15129 0.559991 0.575641 0.839991 0.287818 1.11999C0.287818 1.39999 -0.287828 2.23999 0.287818 5.03999C0.575641 5.87999 0.863464 6.15999 1.72693 6.43999C2.87822 6.71999 6.3321 6.43999 6.3321 6.43999C7.19557 6.43999 7.48339 5.87999 7.77121 5.31999C7.77121 4.47999 7.77121 3.07999 7.48339 1.67999Z" fill="white"/>
<path d="M37.1291 2.8C37.1291 0.84 37.1291 0.28 34.8266 0C34.5387 0 23.6015 0 12.6642 0C11.8007 0 9.78597 0 9.78597 1.68C9.78597 3.08 9.49815 4.2 9.78597 5.32C10.0738 6.44 10.9373 6.72 11.8007 6.72C13.2398 6.72 14.679 6.72 16.1181 6.72C17.2694 6.72 18.4207 6.72 18.7085 7.84C19.8598 9.24 19.572 11.2 19.572 12.32C19.572 19.6 19.572 22.68 19.572 24.36C22.1624 25.2 25.0406 25.76 28.2066 26.6V26.32C28.2066 21.56 28.2066 16.8 28.2066 12.32C28.2066 9.24 27.9188 7.28 29.3579 7C30.797 6.72 32.524 7 33.9631 7C34.8266 7 36.8413 7.28 37.1291 6.16C37.417 4.76 37.1291 3.92 37.1291 2.8ZM19.572 26.04V26.6C19.572 27.44 19.8598 28.56 21.0111 28.84C22.4502 29.12 24.1771 29.12 25.6162 29.12C26.4797 29.12 27.0553 29.12 27.631 28.84C24.7528 27.72 22.1624 26.88 19.572 26.04Z" fill="#FDFEFF"/>
<path d="M46.9151 20.44C48.0664 20.44 49.2177 20.44 50.369 20.44H55.262C56.1254 20.44 56.7011 20.44 57.5646 20.44C58.7159 20.16 59.2915 19.88 59.2915 18.76C59.2915 17.92 59.2915 17.36 59.2915 16.8C59.0037 14 57.5646 11.48 55.262 9.8C52.3837 7.56 48.0664 6.72 44.3247 7.56C42.3099 7.84 40.583 8.68 38.8561 9.8C37.9926 10.36 37.417 11.2 36.8413 11.76C36.2657 12.6 35.9778 13.16 35.4022 14C34.2509 16.24 33.9631 18.76 34.8266 21.28C35.69 23.8 37.7048 26.04 40.2952 27.44C44.0369 29.4 48.9299 29.4 52.9594 27.72C55.5498 26.6 57.5646 24.92 58.428 22.4C58.428 21.84 58.428 21.56 57.8524 21.28C56.9889 20.72 52.6716 21 52.0959 21C51.5203 21 51.2325 21.28 50.9446 21.56C50.6568 21.84 50.369 22.12 50.0812 22.4C50.0812 22.4 49.7933 22.68 49.5055 22.68C48.9299 22.96 48.3542 23.24 47.7786 23.24C46.6273 23.24 45.7638 23.24 44.6125 22.68C44.0369 22.4 43.1734 21.84 42.8856 21.28C42.5978 21 42.5978 20.44 42.8856 20.44C44.3247 20.44 44.9003 20.44 46.9151 20.44ZM44.0369 14.56C44.6125 13.44 46.6273 12.88 48.0664 13.16C48.9299 13.16 49.5055 13.44 50.0812 14C50.6568 14.28 51.2325 14.84 50.9446 15.68C50.6568 15.96 50.369 15.96 49.7933 15.96H48.0664C46.9151 15.96 45.476 15.96 44.3247 15.96C43.7491 15.4 43.7491 14.84 44.0369 14.56Z" fill="#FDFEFF"/>
<path d="M83.7565 20.44C82.3174 14.28 73.9705 15.96 71.3801 14.28C71.0923 14 70.8044 13.72 70.8044 13.44C70.8044 12.32 73.3948 11.76 74.5461 12.88C75.4096 13.72 75.1218 14.56 76.5609 14.84C76.8487 14.84 77.1365 15.12 79.7269 15.12C83.1808 15.12 82.893 13.72 82.893 13.72C83.1808 10.92 80.5904 6.44001 71.9557 7.00001C61.3063 7.84001 61.8819 13.72 62.1697 14.28C62.4576 16.8 64.4723 18.48 70.5166 20.16C71.3801 20.44 72.5314 20.44 73.3948 20.72C78 21.84 75.4096 23.52 74.834 23.8C72.5314 24.64 70.2288 23.52 69.3653 22.12C69.0775 21.84 68.7897 21.56 68.5019 21.28C67.3506 20.44 64.1845 20.72 63.6089 21C62.4576 21.28 61.5941 22.12 61.8819 23.8C62.1697 25.2 63.321 26.32 64.7602 27.16C68.5019 29.68 75.4096 29.12 76.5609 28.84C76.5609 28.84 85.1956 26.88 83.7565 20.44Z" fill="#FDFEFF"/>
<path d="M101.026 8.11999C99.8745 7.27999 98.1476 7.27999 97.572 7.27999C97.2841 7.27999 96.9963 6.99999 96.9963 6.71999C96.9963 5.59999 96.9963 4.47999 96.9963 3.35999C96.9963 2.23999 96.9963 1.39999 94.9815 0.83999C94.4059 0.83999 92.1033 0.55999 91.2399 0.83999C90.0886 1.11999 89.2251 2.23999 89.2251 3.63999C89.2251 4.75999 89.2251 5.87999 89.2251 6.71999C89.2251 7.27999 88.9373 7.55999 88.6494 7.55999C87.4982 7.83999 86.3469 7.83999 85.4834 8.95999C85.4834 9.23999 84.6199 12.32 86.9225 12.88C88.3616 13.16 88.9373 13.16 89.2251 13.72C90.0886 14.84 88.6494 23.52 90.0886 25.76C90.3764 26.32 90.952 26.6 91.2399 27.16C94.4059 26.04 97.572 24.92 100.45 23.52C99.8745 23.24 99.2989 23.24 98.7232 22.96C97.2841 22.4 97.2841 21.56 97.2841 21C97.2841 20.72 97.2841 13.72 97.2841 13.72C97.572 12.32 100.45 13.44 101.601 11.48C101.601 11.2 101.889 8.67999 101.026 8.11999ZM101.601 24.08C99.5867 25.48 96.9963 26.88 93.8303 28.28C98.4354 29.4 100.162 28.56 100.162 28.56C101.601 28 102.177 26.04 102.177 25.48C101.889 24.64 101.889 24.36 101.601 24.08Z" fill="#FDFEFF"/>
<path d="M112.539 16.8C112.539 14.28 112.539 11.76 112.539 10.36C112.539 9.79999 112.539 9.23999 112.251 8.67999C111.963 8.11999 111.675 7.83999 110.524 7.83999C110.524 7.83999 107.646 7.83999 106.494 7.83999C105.919 7.83999 105.631 8.11999 105.343 8.39999C105.343 8.39999 105.343 8.39999 105.055 8.67999C105.055 8.67999 105.055 8.95999 104.768 8.95999V9.23999C104.768 9.51999 104.768 9.79999 104.768 9.79999C104.768 11.2 104.768 12.32 104.768 13.44C104.768 14.28 104.768 15.12 104.768 16.24C104.768 16.52 104.768 17.08 104.768 17.36C104.768 17.64 104.768 17.92 104.768 17.92C104.768 18.48 104.768 19.04 104.768 19.6C104.768 19.6 104.768 20.16 104.768 21C104.768 21.28 104.768 21.28 104.768 21.56C104.768 23.52 104.768 26.6 105.055 27.16C105.631 28.56 109.661 28 111.1 28C111.387 28 111.675 28 111.963 27.72C112.251 27.72 112.251 27.44 112.251 27.16C112.251 27.16 112.251 27.16 112.251 26.88C112.251 26.32 112.251 25.76 112.539 24.64C112.827 22.68 112.539 19.6 112.539 16.8ZM112.251 1.67999C112.251 1.11999 111.387 0.559991 110.812 0.559991C109.948 0.559991 107.358 0.279991 106.207 0.559991C105.631 0.559991 105.343 0.839991 105.055 1.11999C105.055 1.39999 104.768 1.67999 104.48 2.23999C104.48 2.51999 104.48 3.07999 104.48 3.91999C104.48 4.19999 104.48 4.47999 104.48 4.75999C105.055 5.59999 105.631 5.87999 106.494 6.15999C107.646 6.43999 111.1 6.15999 111.1 6.15999C111.387 6.15999 111.675 6.15999 111.963 5.87999C111.963 5.59999 112.251 5.31999 112.251 5.03999C112.251 4.75999 112.251 4.47999 112.251 4.19999C112.251 4.19999 112.251 3.91999 112.251 3.63999C112.539 3.35999 112.539 2.51999 112.251 1.67999Z" fill="#FDFEFF"/>
<path d="M129.52 7.56C128.945 7.56 128.369 7.56 127.793 7.28C126.93 7.28 126.93 6.44 127.218 6.16C128.081 5.04 130.384 6.44 131.247 4.2C131.823 2.8 131.247 1.4 131.247 1.4C130.672 0.28 128.945 0 127.506 0C125.779 0 124.052 0.28 122.613 1.12C121.461 1.96 120.31 2.8 119.734 4.2C121.173 3.92 122.9 3.64 124.915 3.64C124.915 3.64 122.325 3.64 119.159 5.32C119.159 5.6 119.159 5.88 119.159 6.16C118.871 8.12 117.144 7 115.705 8.12C115.129 8.4 114.266 11.48 115.993 12.04C116.856 12.32 117.72 12.04 118.295 12.6C118.583 12.88 118.871 13.44 118.871 13.72C118.871 15.68 118.871 17.64 118.871 19.6C118.871 21.28 118.871 23.24 118.871 24.92C118.871 26.04 118.583 27.44 119.734 28C120.31 28.28 121.173 28.28 122.037 28.28C122.9 28.28 123.764 28.28 124.627 28.28C125.491 28 125.779 27.72 126.066 27.16C126.354 26.32 126.066 13.44 126.066 13.16C126.066 12.32 128.081 12.32 128.945 12.04C129.808 12.04 130.384 11.48 130.672 10.64C130.672 10.08 130.672 9.24 130.672 8.68C130.959 8.12 130.384 7.84 129.52 7.56Z" fill="#FDFEFF"/>
<path d="M154.561 7.56C154.273 7.56 150.531 7.56 149.668 7.56C149.668 7.56 147.941 7.56 147.365 9.52C146.79 11.2 145.063 16.52 144.487 17.36C144.199 17.64 143.624 17.92 143.336 17.36C142.76 16.52 140.458 10.08 139.594 8.68C139.306 8.12 139.018 7.84 137.867 7.84C133.55 7.84 134.701 7.56 132.974 7.84C131.535 8.12 131.823 9.52 131.823 9.8C131.823 9.8 138.155 24.08 139.306 26.88C139.594 27.44 140.17 28.84 138.731 29.4C138.155 29.68 137.292 29.68 134.989 29.68C134.413 29.68 134.125 29.96 133.838 30.52C133.55 31.36 133.838 34.44 133.838 34.44C133.838 35.84 135.565 35.56 136.14 35.56C139.882 35.56 143.048 35.84 144.775 33.88C147.077 31.92 156 9.24 156 9.24C156 8.4 156.288 7.56 154.561 7.56Z" fill="#FDFEFF"/>
</svg>
