<svg width="154" height="36" viewBox="0 0 154 36" fill="none" xmlns="http://www.w3.org/2000/svg">
<path d="M0.10961 18.9415C0.10961 19.3846 0.10961 19.8277 0.10961 20.2708C0.10961 20.8246 -0.219215 26.9169 0.328828 28.0246C0.87687 29.3538 5.04199 29.0215 6.13808 28.9108C6.90534 28.8 7.23417 28.4677 7.45338 27.9139C7.6726 27.2492 7.6726 25.0339 7.6726 22.2646C5.26121 21.2677 2.74022 20.16 0.10961 18.9415ZM7.56299 10.6339C7.56299 10.08 7.56299 9.41539 7.34377 8.86154C7.12456 8.41846 6.79573 7.97539 5.48043 7.97539C5.37082 7.97539 2.63061 7.97539 1.53452 7.97539C0.219219 8.08616 1.89245e-06 9.41539 1.89245e-06 10.1908C1.89245e-06 13.5138 0.10961 14.5108 0.10961 18.6092C2.08256 19.3846 4.71317 20.3815 7.78221 21.3785C7.78221 17.3908 7.6726 12.6277 7.56299 10.6339ZM7.45338 1.77231C7.34377 1.10769 6.79573 0.664618 6.13808 0.664618C5.26121 0.553849 2.84982 0.443079 1.53452 0.664618C1.2057 0.775387 0.767262 0.996926 0.548045 1.32923C0.328828 1.55077 -0.328824 2.43693 0.10961 5.09539C0.328828 5.98154 0.767262 6.20308 1.53452 6.42462C2.74022 6.75693 5.91886 6.31385 6.02847 6.31385C6.68612 6.20308 7.12456 5.87077 7.34377 5.31693C7.6726 4.54154 7.56299 3.21231 7.45338 1.77231Z" fill="#3165CB"/>
<path d="M36.6093 2.87999C36.4997 0.996915 36.7189 0.22153 34.3075 0.110761C34.0883 0.110761 23.1274 -8.07643e-06 12.4954 0.22153C11.6185 0.22153 9.75517 0.110761 9.75517 1.88307C9.75517 3.2123 9.53596 4.31999 9.86478 5.64922C10.1936 6.64615 10.9609 6.97845 12.057 6.97845C13.4819 6.97845 14.9068 7.08922 16.4413 7.08922C17.5374 7.08922 18.6335 6.97845 19.0719 8.08615C19.5103 9.41538 19.2911 11.4092 19.2911 12.7385C19.2911 20.16 19.1815 23.4831 19.1815 25.0338C21.8121 25.8092 24.6619 26.4738 27.5118 27.1385V26.8061C27.5118 22.0431 27.6214 17.1692 27.6214 12.4061C27.6214 9.30461 27.2925 7.19999 28.6078 6.97845C30.1424 6.75692 31.6769 6.86768 33.2114 6.86768C34.1979 6.86768 35.9516 7.19999 36.3901 6.0923C36.8285 4.98461 36.6093 3.98768 36.6093 2.87999ZM19.1815 26.6954V27.1385C19.1815 28.0246 19.4007 29.1323 20.4968 29.3538C21.9217 29.6861 23.6755 29.5754 24.9908 29.5754C25.758 29.5754 26.4157 29.4646 26.8541 29.1323C24.3331 28.4677 21.8121 27.5815 19.1815 26.6954Z" fill="#222428"/>
<path d="M46.2548 21.0461C47.4605 21.0461 48.5566 20.9354 49.7623 20.9354L54.585 20.8246C55.3523 20.8246 56.1196 20.8246 56.8868 20.7138C58.0925 20.4923 58.6406 20.0492 58.7502 18.9415C58.7502 18.2769 58.7502 17.5015 58.6406 16.8369C58.2021 14.1784 56.8868 11.7415 54.585 9.85844C51.7352 7.64306 47.5701 6.64614 43.953 7.42152C41.9801 7.8646 40.2263 8.63998 38.6918 9.85844C37.9245 10.4123 37.2669 11.1877 36.7189 11.8523C36.1708 12.6277 35.842 13.4031 35.4036 14.2892C34.3075 16.6154 34.0882 19.2738 34.8555 21.7108C35.7324 24.3692 37.7053 26.5846 40.2263 28.0246C43.953 30.0184 48.7758 30.0184 52.7217 28.3569C55.2427 27.2492 57.3253 25.3661 58.0925 22.9292C58.2021 22.4861 57.9829 22.1538 57.6541 21.9323C56.7772 21.4892 52.3929 21.4892 51.9544 21.4892C51.516 21.4892 51.1872 21.8215 50.8584 22.1538C50.6391 22.4861 50.4199 22.8184 50.2007 23.04C50.0911 23.1508 49.8719 23.2615 49.7623 23.3723C49.2142 23.5938 48.7758 23.8154 48.1181 23.9261C47.0221 24.0369 46.0356 23.9261 45.0491 23.4831C44.3915 23.2615 43.7338 22.7077 43.405 22.1538C43.1858 21.8215 43.1858 21.4892 43.2954 21.2677C43.6242 21.0461 44.1722 21.0461 46.2548 21.0461ZM43.405 14.8431C44.0626 13.6246 45.926 13.1815 47.3509 13.4031C48.0085 13.5138 48.8854 13.7354 49.4334 14.0677C49.8719 14.4 50.5295 15.0646 50.0911 15.7292C49.8719 16.0615 49.4334 15.9508 48.995 15.9508H47.2413C46.0356 15.9508 44.8299 16.0615 43.7338 15.9508C43.0762 15.84 43.1858 15.1754 43.405 14.8431Z" fill="#222428"/>
<path d="M82.5353 21.0461C81.0007 14.8431 72.7801 16.3938 70.3687 14.7323C70.0399 14.5107 69.8207 14.1784 69.8207 13.8461C69.7111 12.6277 72.4513 12.0738 73.657 13.2923C74.4242 14.0677 74.3146 14.9538 75.5203 15.2861C75.7395 15.3969 75.9587 15.5077 78.699 15.5077C82.0968 15.5077 81.8776 14.0677 81.8776 13.9569C82.0968 11.4092 79.4662 6.64613 71.136 7.31075C60.5039 7.97536 61.2712 14.1784 61.3808 14.8431C61.6 17.3907 63.573 19.2738 69.6014 20.8246C70.4783 21.0461 71.4648 21.1569 72.3417 21.3784C76.8356 22.4861 74.4242 24.3692 73.7666 24.5907C71.4648 25.2554 69.163 24.3692 68.2861 22.7077C68.0669 22.3754 67.7381 22.0431 67.4093 21.8215C66.3132 21.0461 63.0249 21.3784 62.5865 21.3784C61.3808 21.6 60.5039 22.5969 60.9424 24.3692C61.2712 25.92 62.2577 26.9169 63.6826 27.9138C67.5189 30.4615 74.0954 29.9077 75.1915 29.6861C75.5203 29.4646 84.1794 27.4707 82.5353 21.0461Z" fill="#222428"/>
<path d="M99.7438 8.30769C98.6477 7.53231 97.0036 7.53231 96.4555 7.31077C96.2363 7.2 96.0171 6.97846 96.0171 6.75692C96.0171 5.64923 96.0171 4.54154 95.9075 3.32308C95.7979 2.32616 95.7979 1.21846 93.9345 0.664616C93.3865 0.553847 91.0847 0.443078 90.2078 0.553847C89.0021 0.775386 88.3445 1.88308 88.2349 3.32308C88.2349 4.43077 88.2349 5.42769 88.1253 6.53539C88.1253 6.97846 87.906 7.2 87.4676 7.42154C86.2619 7.75385 85.0562 7.64308 84.5082 8.86154C84.3986 9.08308 83.6313 12.4062 85.9331 12.96C87.2484 13.2923 87.7964 13.2923 88.1253 13.8462C88.7829 15.0646 87.5772 23.9262 89.1117 26.2523C89.4406 26.8062 89.879 27.2492 90.3174 27.5815C93.3865 26.5846 96.4555 25.3662 99.3053 23.8154C98.7573 23.5938 98.2092 23.3723 97.5516 23.1508C96.0171 22.4862 96.1267 21.8215 96.0171 21.2677C96.0171 20.9354 96.0171 13.8462 96.0171 13.7354C96.2363 12.2954 99.0861 13.5138 100.182 11.6308C100.401 11.52 100.621 8.86154 99.7438 8.30769ZM100.182 24.7015C98.2092 26.0308 95.5786 27.4708 92.5096 28.9108C97.0036 29.9077 98.6477 29.1323 98.7573 29.1323C100.182 28.5785 100.621 26.5846 100.621 25.92C100.73 25.3662 100.511 24.9231 100.182 24.7015Z" fill="#222428"/>
<path d="M111.143 17.28C111.143 14.6215 111.033 12.0738 111.033 10.7446V10.5231C111.033 9.96923 111.033 9.30462 110.814 8.75077V8.64C110.595 8.19693 110.157 7.75385 108.951 7.75385C108.951 7.75385 106.101 7.75385 105.005 7.75385C104.457 7.86462 104.128 8.08616 103.909 8.30769C103.799 8.41846 103.799 8.41846 103.69 8.52923C103.58 8.64 103.58 8.75077 103.47 8.86154C103.47 8.97231 103.361 9.08308 103.361 9.19385C103.361 9.41539 103.251 9.63692 103.251 9.85846C103.251 11.4092 103.251 12.4062 103.251 13.5138C103.251 14.2892 103.361 15.1754 103.361 16.2831C103.361 16.6154 103.361 17.0585 103.361 17.5015C103.361 17.7231 103.361 17.9446 103.361 18.1662C103.361 18.72 103.47 19.2738 103.47 20.0492C103.47 20.16 103.47 20.7138 103.361 21.4892C103.361 21.7108 103.361 21.8215 103.361 22.0431C103.251 24.1477 103.251 27.0277 103.58 27.8031C104.128 29.1323 108.293 28.8 109.389 28.6892C109.828 28.5785 110.047 28.5785 110.266 28.3569C110.485 28.2462 110.595 28.0246 110.705 27.6923C110.705 27.6923 110.705 27.6923 110.705 27.5815C110.705 27.4708 110.705 27.4708 110.705 27.36C110.814 26.9169 110.814 26.1415 110.924 25.1446C111.253 23.2615 111.143 20.16 111.143 17.28ZM110.924 1.77231C110.814 1.10769 110.266 0.664618 109.609 0.664618C108.732 0.553849 106.32 0.443079 105.005 0.664618C104.567 0.775387 104.238 0.886156 104.019 1.21846C104.019 1.21846 104.019 1.21846 104.019 1.32923C103.909 1.44 103.69 1.77231 103.58 2.54769C103.47 2.99077 103.47 3.54462 103.58 4.20923V4.32C103.69 4.54154 103.69 4.87385 103.69 5.20616C103.909 6.09231 104.347 6.31385 105.115 6.53539C106.32 6.86769 109.499 6.42462 109.609 6.42462C109.937 6.42462 110.266 6.31385 110.485 6.09231C110.705 5.87077 110.814 5.64923 110.924 5.42769C111.033 5.20616 111.033 4.98462 111.033 4.65231C111.033 4.54154 111.143 4.32 111.033 4.20923C111.033 3.32308 110.924 2.54769 110.924 1.77231Z" fill="#222428"/>
<path d="M127.804 7.8646C127.255 7.75383 126.707 7.75383 126.159 7.64306C125.392 7.5323 125.283 6.97845 125.502 6.53537C126.269 5.31691 128.68 6.75691 129.448 4.54153C129.886 3.2123 129.557 1.55076 129.557 1.55076C129.119 0.221527 127.146 -1.14441e-05 125.831 -0.110781C124.186 -0.22155 122.542 0.221527 121.117 0.996912C119.802 1.7723 118.816 2.87999 118.268 4.09845C119.802 3.65537 121.556 3.5446 123.419 3.65537C123.419 3.65537 121.008 3.76614 117.829 5.31691C117.72 5.64922 117.72 5.87076 117.72 6.20306C117.391 8.19691 115.747 7.08922 114.322 8.08614C113.883 8.41845 112.787 11.4092 114.76 12.1846C115.418 12.5169 116.404 12.2954 117.062 12.7385C117.5 13.0708 117.61 13.5138 117.61 13.9569C117.61 15.9508 117.61 17.9446 117.61 19.9384C117.61 21.8215 117.72 23.5938 117.72 25.4769C117.72 26.4738 117.391 28.0246 118.706 28.6892C119.364 29.0215 120.131 29.0215 120.898 29.0215C121.775 29.1323 122.652 29.1323 123.529 28.9108C124.296 28.6892 124.735 28.3569 124.954 27.6923C125.173 26.9169 125.063 13.7354 125.063 13.4031C125.063 12.4061 126.927 12.5169 128.023 12.2954C128.9 12.1846 129.448 11.7415 129.667 10.9661C129.777 10.3015 129.777 9.63691 129.667 8.9723C129.338 8.41845 128.571 7.97537 127.804 7.8646Z" fill="#222428"/>
<path d="M152.685 7.75384C152.465 7.75384 148.629 7.75384 147.862 7.75384C147.752 7.75384 146.327 7.64307 145.67 9.74769C145.122 11.4092 143.258 17.0585 142.71 17.7231C142.381 18.1662 141.833 18.1662 141.614 17.8338C140.957 17.0585 138.764 10.3015 137.888 8.86154C137.668 8.41846 137.23 7.86461 136.134 7.86461C131.859 7.86461 132.955 7.75384 131.311 7.86461C129.886 7.97538 130.105 9.52615 130.215 9.74769C130.215 9.85846 136.463 24.3692 137.449 27.1385C137.668 27.8031 138.436 29.2431 137.011 29.7969C136.353 30.0185 135.586 30.0185 133.394 30.1292C132.955 30.1292 132.407 30.4615 132.297 30.9046C131.969 31.5692 132.188 34.8923 132.188 34.8923C132.298 36.2215 133.942 36.1108 134.38 36.1108C137.997 36.2215 141.066 36.3323 142.93 34.4492C145.122 32.3446 154.11 9.30461 154.11 9.08307C154 8.64 154.11 7.86461 152.685 7.75384Z" fill="#222428"/>
</svg>
