<svg data-v-6069967c="" width="130" height="28" viewBox="0 0 130 28" fill="none" xmlns="http://www.w3.org/2000/svg"><path data-v-6069967c="" d="M42.3262 21.9978C41.253 21.9978 40.2827 21.8141 39.4153 21.4465C38.5627 21.079 37.8864 20.5497 37.3866 19.8588C36.8867 19.1678 36.6294 18.3519 36.6147 17.411H39.9225C39.9667 18.0432 40.1872 18.543 40.5841 18.9105C40.9957 19.2781 41.5544 19.4618 42.2601 19.4618C42.9804 19.4618 43.5464 19.2928 43.9581 18.9546C44.3697 18.6018 44.5755 18.1461 44.5755 17.5874C44.5755 17.1317 44.4359 16.7568 44.1565 16.4628C43.8772 16.1687 43.5244 15.9409 43.098 15.7792C42.6864 15.6027 42.113 15.4116 41.378 15.2058C40.3783 14.9118 39.5624 14.6251 38.9302 14.3458C38.3128 14.0517 37.7762 13.6181 37.3204 13.0447C36.8794 12.4567 36.6589 11.6775 36.6589 10.7072C36.6589 9.79571 36.8867 9.00184 37.3425 8.32558C37.7982 7.64932 38.4377 7.13477 39.261 6.78194C40.0843 6.41441 41.0251 6.23064 42.0836 6.23064C43.6714 6.23064 44.9578 6.62023 45.9427 7.3994C46.9424 8.16386 47.4937 9.23706 47.5966 10.619H44.2006C44.1712 10.0897 43.9434 9.65605 43.517 9.31792C43.1054 8.96509 42.5541 8.78867 41.8631 8.78867C41.2604 8.78867 40.7752 8.94304 40.4077 9.25176C40.0549 9.56049 39.8784 10.0089 39.8784 10.5969C39.8784 11.0086 40.0108 11.3541 40.2754 11.6334C40.5547 11.898 40.8928 12.1185 41.2898 12.2949C41.7014 12.4567 42.2748 12.6478 43.0098 12.8683C44.0095 13.1623 44.8254 13.4563 45.4576 13.7504C46.0898 14.0444 46.6337 14.4854 47.0894 15.0735C47.5452 15.6615 47.7731 16.4334 47.7731 17.389C47.7731 18.2122 47.5599 18.9767 47.1335 19.6824C46.7072 20.388 46.0824 20.954 45.2591 21.3804C44.4359 21.792 43.4582 21.9978 42.3262 21.9978Z" fill="#354655"></path> <path data-v-6069967c="" d="M60.9243 6.45116V8.94304H56.8226V21.8435H53.7354V8.94304H49.6337V6.45116H60.9243Z" fill="#354655"></path> <path data-v-6069967c="" d="M74.5337 15.4704C74.5337 15.9115 74.5043 16.3084 74.4455 16.6612H65.5144C65.5879 17.5433 65.8966 18.2343 66.4406 18.7341C66.9845 19.234 67.6535 19.4839 68.4473 19.4839C69.594 19.4839 70.41 18.9914 70.8951 18.0064H74.2249C73.8721 19.1825 73.1959 20.1528 72.1962 20.9173C71.1965 21.667 69.9689 22.0419 68.5135 22.0419C67.3374 22.0419 66.2789 21.7847 65.338 21.2701C64.4118 20.7409 63.6841 19.9984 63.1548 19.0429C62.6403 18.0873 62.383 16.9847 62.383 15.7351C62.383 14.4707 62.6403 13.3608 63.1548 12.4052C63.6694 11.4496 64.3898 10.7145 65.3159 10.2C66.2421 9.68545 67.308 9.42818 68.5135 9.42818C69.6749 9.42818 70.7113 9.6781 71.6228 10.1779C72.549 10.6778 73.262 11.3908 73.7619 12.317C74.2764 13.2285 74.5337 14.2796 74.5337 15.4704ZM71.3361 14.5883C71.3214 13.7945 71.0348 13.1623 70.4761 12.6919C69.9175 12.2067 69.2338 11.9642 68.4253 11.9642C67.6608 11.9642 67.0139 12.1994 66.4847 12.6698C65.9701 13.1256 65.6541 13.7651 65.5365 14.5883H71.3361Z" fill="#354655"></path> <path data-v-6069967c="" d="M81.4621 22.0419C80.4624 22.0419 79.5657 21.8655 78.7718 21.5127C77.9779 21.1451 77.3458 20.6526 76.8753 20.0352C76.4196 19.4177 76.1697 18.7341 76.1256 17.9844H79.2349C79.2937 18.4548 79.5216 18.8444 79.9185 19.1531C80.3301 19.4618 80.8373 19.6162 81.4401 19.6162C82.0281 19.6162 82.4839 19.4986 82.8073 19.2634C83.1454 19.0282 83.3145 18.7268 83.3145 18.3592C83.3145 17.9623 83.1087 17.6683 82.697 17.4772C82.3001 17.2713 81.6606 17.0508 80.7785 16.8156C79.867 16.5951 79.1173 16.3672 78.5292 16.132C77.9559 15.8968 77.456 15.5366 77.0297 15.0514C76.618 14.5663 76.4122 13.9121 76.4122 13.0888C76.4122 12.4126 76.6033 11.7951 76.9856 11.2364C77.3825 10.6778 77.9412 10.2368 78.6615 9.91332C79.3966 9.58989 80.2566 9.42818 81.2416 9.42818C82.697 9.42818 83.8584 9.79571 84.7258 10.5308C85.5932 11.2511 86.071 12.2288 86.1592 13.4637H83.2042C83.1601 12.9786 82.9543 12.5963 82.5868 12.317C82.234 12.023 81.7562 11.876 81.1534 11.876C80.5948 11.876 80.1611 11.9789 79.8523 12.1847C79.5583 12.3905 79.4113 12.6772 79.4113 13.0447C79.4113 13.4563 79.6171 13.7724 80.0288 13.9929C80.4404 14.1988 81.0799 14.4119 81.9473 14.6325C82.8294 14.853 83.5571 15.0808 84.1304 15.3161C84.7038 15.5513 85.1963 15.9188 85.6079 16.4187C86.0342 16.9038 86.2548 17.5507 86.2695 18.3592C86.2695 19.0649 86.071 19.6971 85.6741 20.2557C85.2918 20.8144 84.7332 21.2554 83.9981 21.5788C83.2777 21.8876 82.4324 22.0419 81.4621 22.0419Z" fill="#354655"></path> <path data-v-6069967c="" d="M92.3982 12.1626V18.0726C92.3982 18.4842 92.4938 18.7856 92.6849 18.9767C92.8907 19.1531 93.2288 19.2413 93.6993 19.2413H95.1326V21.8435H93.1921C90.5899 21.8435 89.2889 20.5791 89.2889 18.0505V12.1626H87.8334V9.62665H89.2889V6.60552H92.3982V9.62665H95.1326V12.1626H92.3982Z" fill="#354655"></path> <path data-v-6069967c="" d="M98.9189 8.17122C98.3749 8.17122 97.9192 8.00215 97.5517 7.66402C97.1988 7.31119 97.0224 6.8775 97.0224 6.36295C97.0224 5.8484 97.1988 5.42207 97.5517 5.08394C97.9192 4.7311 98.3749 4.55469 98.9189 4.55469C99.4628 4.55469 99.9112 4.7311 100.264 5.08394C100.632 5.42207 100.815 5.8484 100.815 6.36295C100.815 6.8775 100.632 7.31119 100.264 7.66402C99.9112 8.00215 99.4628 8.17122 98.9189 8.17122ZM100.44 9.62665V21.8435H97.3532V9.62665H100.44Z" fill="#354655"></path> <path data-v-6069967c="" d="M110.261 9.45023C111.716 9.45023 112.892 9.91332 113.789 10.8395C114.686 11.751 115.134 13.03 115.134 14.6766V21.8435H112.047V15.0955C112.047 14.1253 111.804 13.3828 111.319 12.8683C110.834 12.339 110.172 12.0744 109.334 12.0744C108.482 12.0744 107.806 12.339 107.306 12.8683C106.821 13.3828 106.578 14.1253 106.578 15.0955V21.8435H103.491V9.62665H106.578V11.1482C106.99 10.619 107.512 10.2074 108.144 9.91332C108.791 9.6046 109.496 9.45023 110.261 9.45023Z" fill="#354655"></path> <path data-v-6069967c="" d="M122.855 9.42818C123.767 9.42818 124.568 9.61195 125.259 9.97948C125.95 10.3323 126.494 10.7954 126.891 11.3688V9.62665H130V21.9317C130 23.0637 129.772 24.0707 129.317 24.9528C128.861 25.8496 128.177 26.5552 127.266 27.0698C126.354 27.599 125.252 27.8637 123.958 27.8637C122.223 27.8637 120.797 27.4594 119.68 26.6508C118.577 25.8422 117.952 24.7396 117.805 23.343H120.871C121.032 23.9016 121.378 24.3427 121.907 24.6661C122.451 25.0042 123.105 25.1733 123.87 25.1733C124.766 25.1733 125.494 24.9013 126.053 24.3574C126.611 23.8281 126.891 23.0196 126.891 21.9317V20.0352C126.494 20.6085 125.943 21.0863 125.237 21.4686C124.546 21.8508 123.752 22.0419 122.855 22.0419C121.826 22.0419 120.885 21.7773 120.033 21.2481C119.18 20.7188 118.504 19.9764 118.004 19.0208C117.519 18.0505 117.276 16.9406 117.276 15.6909C117.276 14.456 117.519 13.3608 118.004 12.4052C118.504 11.4496 119.173 10.7145 120.011 10.2C120.863 9.68545 121.811 9.42818 122.855 9.42818ZM126.891 15.7351C126.891 14.9853 126.744 14.3458 126.45 13.8165C126.156 13.2726 125.759 12.8609 125.259 12.5816C124.759 12.2876 124.223 12.1406 123.649 12.1406C123.076 12.1406 122.547 12.2802 122.061 12.5596C121.576 12.8389 121.179 13.2505 120.871 13.7945C120.577 14.3237 120.43 14.9559 120.43 15.6909C120.43 16.426 120.577 17.0729 120.871 17.6315C121.179 18.1755 121.576 18.5945 122.061 18.8885C122.561 19.1825 123.091 19.3295 123.649 19.3295C124.223 19.3295 124.759 19.1899 125.259 18.9105C125.759 18.6165 126.156 18.2049 126.45 17.6756C126.744 17.1317 126.891 16.4848 126.891 15.7351Z" fill="#354655"></path> <path data-v-6069967c="" d="M24.4639 4.33407C21.7764 1.64655 18.1314 0.136718 14.3306 0.136719C10.5299 0.136719 6.88486 1.64655 4.19735 4.33407C1.50983 7.02158 -1.20812e-07 10.6666 0 14.4674C1.20812e-07 18.2681 1.50983 21.9131 4.19735 24.6007L14.3306 14.4674L24.4639 4.33407Z" fill="#7EB2FF"></path> <path data-v-6069967c="" d="M16.1943 16.332H24.8084V24.9461H16.1943V16.332Z" fill="#161C27"></path> <g data-v-6069967c="" filter="url(#filter0_bi)"><path data-v-6069967c="" d="M22.3964 14.2656C22.3964 18.8327 18.694 22.5351 14.1269 22.5351C9.5598 22.5351 5.85742 18.8327 5.85742 14.2656C5.85742 9.69847 9.5598 5.99609 14.1269 5.99609C18.694 5.99609 22.3964 9.69847 22.3964 14.2656Z" fill="#354655" fill-opacity="0.04"></path></g> <defs data-v-6069967c=""><filter data-v-6069967c="" id="filter0_bi" x="1.37811" y="1.51678" width="25.4976" height="25.4976" filterUnits="userSpaceOnUse" color-interpolation-filters="sRGB"><feFlood data-v-6069967c="" flood-opacity="0" result="BackgroundImageFix"></feFlood> <feGaussianBlur data-v-6069967c="" in="BackgroundImage" stdDeviation="2.23966"></feGaussianBlur> <feComposite data-v-6069967c="" in2="SourceAlpha" operator="in" result="effect1_backgroundBlur"></feComposite> <feBlend data-v-6069967c="" mode="normal" in="SourceGraphic" in2="effect1_backgroundBlur" result="shape"></feBlend> <feColorMatrix data-v-6069967c="" in="SourceAlpha" type="matrix" values="0 0 0 0 0 0 0 0 0 0 0 0 0 0 0 0 0 0 127 0" result="hardAlpha"></feColorMatrix> <feOffset data-v-6069967c="" dx="0.344563" dy="0.344563"></feOffset> <feGaussianBlur data-v-6069967c="" stdDeviation="0.344563"></feGaussianBlur> <feComposite data-v-6069967c="" in2="hardAlpha" operator="arithmetic" k2="-1" k3="1"></feComposite> <feColorMatrix data-v-6069967c="" type="matrix" values="0 0 0 0 1 0 0 0 0 1 0 0 0 0 1 0 0 0 0.5 0"></feColorMatrix> <feBlend data-v-6069967c="" mode="normal" in2="shape" result="effect2_innerShadow"></feBlend></filter></defs></svg>